<?xml version="1.0" encoding="UTF-8" standalone="no"?>
<!-- Created with Inkscape (http://www.inkscape.org/) -->

<svg
   width="64"
   height="64"
   viewBox="0 0 16.933333 16.933333"
   version="1.1"
   id="svg1"
   inkscape:version="1.3.2 (091e20ef0f, 2023-11-25)"
   sodipodi:docname="favicon.svg"
   xmlns:inkscape="http://www.inkscape.org/namespaces/inkscape"
   xmlns:sodipodi="http://sodipodi.sourceforge.net/DTD/sodipodi-0.dtd"
   xmlns:xlink="http://www.w3.org/1999/xlink"
   xmlns="http://www.w3.org/2000/svg"
   xmlns:svg="http://www.w3.org/2000/svg">
  <sodipodi:namedview
     id="namedview1"
     pagecolor="#ffffff"
     bordercolor="#999999"
     borderopacity="1"
     inkscape:showpageshadow="2"
     inkscape:pageopacity="0"
     inkscape:pagecheckerboard="0"
     inkscape:deskcolor="#ffffff"
     inkscape:document-units="px"
     showborder="false"
     showguides="false"
     inkscape:zoom="11.313708"
     inkscape:cx="25.897786"
     inkscape:cy="25.455844"
     inkscape:window-width="1920"
     inkscape:window-height="1011"
     inkscape:window-x="0"
     inkscape:window-y="0"
     inkscape:window-maximized="1"
     inkscape:current-layer="layer1" />
  <defs
     id="defs1">
    <linearGradient
       id="linearGradient5"
       inkscape:collect="always">
      <stop
         style="stop-color:#094bac;stop-opacity:1;"
         offset="0"
         id="stop5" />
      <stop
         style="stop-color:#094bac;stop-opacity:0;"
         offset="1"
         id="stop6" />
    </linearGradient>
    <inkscape:path-effect
       effect="powerstroke"
       id="path-effect4"
       is_visible="true"
       lpeversion="1.3"
       scale_width="1"
       interpolator_type="CentripetalCatmullRom"
       interpolator_beta="0.2"
       start_linecap_type="zerowidth"
       end_linecap_type="zerowidth"
       offset_points="0.13595165,3.5284037 | 0.50158974,2.4650678 | 0.84408016,1.8022185"
       linejoin_type="round"
       miter_limit="4"
       not_jump="false"
       sort_points="true"
       message="&lt;b&gt;Ctrl + click&lt;/b&gt; on existing node and move it" />
    <inkscape:path-effect
       effect="fill_between_many"
       method="bsplinespiro"
       autoreverse="false"
       close="false"
       join="false"
       linkedpaths="#path4,0,1"
       id="path-effect5"
       is_visible="true"
       lpeversion="0" />
    <linearGradient
       inkscape:collect="always"
       xlink:href="#linearGradient5"
       id="linearGradient6"
       x1="111.14516"
       y1="143.52675"
       x2="135.94046"
       y2="28.549795"
       gradientUnits="userSpaceOnUse"
       gradientTransform="matrix(0.86594881,0,0,0.86594881,-87.788837,-27.480398)" />
  </defs>
  <g
     inkscape:label="Layer 1"
     inkscape:groupmode="layer"
     id="layer1"
     transform="translate(102.49296,-31.353125)">
    <g
       id="g1"
       transform="matrix(0.11851852,0,0,0.11851852,-90.345646,27.637198)">
      <path
         d="M -64.37481,42.309025 C -35.342762,75.096599 21.812174,71.05603 5.4629389,163.27223 L 40.382039,102.79063 5.4629389,42.309025 Z"
         style="fill:url(#linearGradient6);stroke:none;stroke-width:0.646003;stroke-linejoin:round"
         id="path2" />
      <path
         id="path3"
         style="fill:#05285b;stroke-width:0.458232;stroke-linejoin:round"
         d="m -67.573859,42.309025 -34.919101,60.481605 34.919101,60.4816 H 2.2638902 C 18.613116,71.056125 -38.541839,75.096564 -67.573859,42.309025 Z m 10.948326,41.375058 c 0.07726,-0.0035 0.158853,-0.0017 0.24433,0.0052 0.341911,0 0.657584,0.11815 0.946893,0.354857 0.157803,0.789027 0.210118,1.578209 0.157517,2.367227 -0.05261,0.789027 -0.170758,1.564683 -0.354862,2.327402 -0.184104,0.762728 -0.407783,1.512241 -0.670789,2.248644 -0.263008,0.71013 -0.52592,1.407323 -0.788928,2.091128 -0.76272,2.130364 -1.433306,4.26071 -2.011921,6.391074 -0.578616,2.130365 -1.183808,4.392395 -1.815025,6.785765 -0.131504,0.52601 -0.276263,1.07799 -0.434067,1.65661 -0.131503,0.57861 -0.262736,1.17072 -0.39424,1.77564 0,0.0526 -0.02615,0.23659 -0.07876,0.55221 -0.05261,0.3156 -0.145048,0.63128 -0.27655,0.94689 -0.105203,0.34191 -0.276119,0.61791 -0.512826,0.82831 -0.210404,0.2367 -0.512553,0.28947 -0.907065,0.15796 -0.236707,-0.0789 -0.407622,-0.35534 -0.512825,-0.82875 -0.105202,-0.44712 -0.157964,-0.95986 -0.157964,-1.53848 0,-0.55231 0.01308,-1.10474 0.03938,-1.65706 0.05261,-0.57862 0.09229,-1.02552 0.118585,-1.34114 0.0789,-1.10463 0.157373,-2.0778 0.236276,-2.91943 0.105202,-0.86792 0.236882,-1.73603 0.394687,-2.60395 -0.473413,0.55231 -0.960004,1.2495 -1.459717,2.09113 -0.473413,0.84162 -0.999239,1.70928 -1.577855,2.60351 -0.236707,0.36821 -0.486541,0.77588 -0.749549,1.22299 -0.263006,0.44711 -0.552525,0.88138 -0.868132,1.3022 -0.28931,0.39451 -0.604983,0.74942 -0.946893,1.06503 -0.315607,0.3156 -0.670518,0.5262 -1.06503,0.63141 -0.447111,0.1315 -0.999543,0.14456 -1.65706,0.0394 -0.631217,-0.0789 -1.143964,-0.2629 -1.538476,-0.55221 -0.473412,-0.31561 -0.802166,-0.81527 -0.986271,-1.49909 -0.184106,-0.71013 -0.236867,-1.48623 -0.157964,-2.32786 0.07891,-0.97312 0.328736,-1.99907 0.749548,-3.0774 0.447112,-1.10463 0.999543,-2.14321 1.65706,-3.116318 0.657519,-0.973136 1.393944,-1.828156 2.209266,-2.564576 0.815323,-0.762719 1.656822,-1.301625 2.524747,-1.617238 0.999427,-0.36821 1.920293,-0.447132 2.761917,-0.236724 0.841623,0.184109 1.485603,0.578705 1.932716,1.183622 0.210405,-0.999435 0.486845,-2.091214 0.828753,-3.27475 0.368211,-1.209817 0.775882,-2.406238 1.222995,-3.589773 0.210405,-0.526012 0.447161,-1.078436 0.710169,-1.657063 0.263007,-0.578609 0.525921,-1.117966 0.788927,-1.617679 0.289309,-0.526012 0.578379,-0.999071 0.867686,-1.419887 0.315609,-0.447116 0.631283,-0.789399 0.946892,-1.026098 0.157804,-0.09863 0.352648,-0.15258 0.584424,-0.162443 z m 3.116778,11.344354 c 0.09041,0.0017 0.185082,0.0092 0.28371,0.02234 0.631217,0.473415 1.078124,1.117845 1.341132,1.933162 0.289307,0.789026 0.539142,1.63053 0.749548,2.524752 0.473412,-0.420817 0.946923,-0.815404 1.420338,-1.183614 0.473412,-0.394509 1.012317,-0.749427 1.617234,-1.06503 0.263007,-0.157811 0.539446,-0.302563 0.828754,-0.434066 0.315608,-0.15781 0.631283,-0.27596 0.946892,-0.354866 0.315607,-0.105204 0.631283,-0.157966 0.946891,-0.157966 0.34191,-0.02632 0.670663,0.03949 0.986272,0.19735 0.105202,0.315603 -0.02648,0.697123 -0.394687,1.14423 -0.368211,0.447115 -0.828645,0.907098 -1.380959,1.380513 -0.526016,0.473414 -1.077997,0.933848 -1.656614,1.380968 -0.578615,0.42081 -1.012891,0.77571 -1.3022,1.06502 -0.263006,0.263 -0.578682,0.5656 -0.946892,0.90751 -0.36821,0.34191 -0.578361,0.63098 -0.630963,0.86769 -0.0789,0.36821 -0.131664,0.82865 -0.157964,1.38096 0,0.52602 0.0266,1.06536 0.07921,1.61768 0.0789,0.52602 0.183978,1.01261 0.315481,1.45972 0.131503,0.44711 0.289341,0.76233 0.473446,0.94644 0.263008,0 0.486237,-0.10507 0.670342,-0.31548 0.184105,-0.23671 0.355469,-0.47346 0.513273,-0.71017 0.157804,-0.26301 0.328719,-0.49976 0.512825,-0.71017 0.210405,-0.2367 0.473319,-0.38101 0.788927,-0.43362 0.184105,0.28931 0.223342,0.68346 0.118138,1.18317 -0.105203,0.47342 -0.302276,0.97308 -0.591583,1.4991 -0.263008,0.49971 -0.59176,0.96015 -0.986272,1.38095 -0.36821,0.44712 -0.710041,0.74971 -1.02565,0.90752 -0.604916,0.28931 -1.183504,0.34162 -1.73582,0.15751 -0.526013,-0.1841 -1.012604,-0.49933 -1.459717,-0.94644 -0.447111,-0.44711 -0.841705,-0.96031 -1.183614,-1.53893 -0.315609,-0.5786 -0.539286,-1.11751 -0.67079,-1.61722 -0.36821,0.23669 -0.749277,0.59161 -1.143788,1.06503 -0.36821,0.47341 -0.723567,0.92076 -1.065478,1.34158 -0.131502,0.1578 -0.302419,0.42071 -0.512824,0.78892 -0.210407,0.36822 -0.434083,0.69697 -0.67079,0.98627 -0.236706,0.31561 -0.459936,0.49961 -0.670342,0.55221 -0.236706,0.0789 -0.421148,-0.11817 -0.552652,-0.59158 -0.131504,-0.42082 -0.09182,-0.93402 0.118585,-1.53893 0.210405,-0.60492 0.486398,-1.20966 0.828306,-1.81458 0.341911,-0.63121 0.697269,-1.20981 1.065478,-1.73581 0.394511,-0.52602 0.69666,-0.9337 0.907065,-1.223 0.184106,-0.23671 0.407782,-0.48654 0.67079,-0.74955 0.263007,-0.2893 0.420844,-0.56575 0.473446,-0.82876 0.0789,-0.2893 0.09198,-0.61806 0.03938,-0.98627 -0.05261,-0.3682 -0.06568,-0.72312 -0.03938,-1.06503 0.0263,-0.55232 0.05246,-1.1309 0.07876,-1.735819 0.05261,-0.631216 0.105365,-1.23596 0.157965,-1.814579 0.05261,-0.578601 0.131522,-1.091805 0.236722,-1.538921 0.105204,-0.473414 0.223359,-0.815238 0.354861,-1.025647 0.105204,-0.184109 0.289646,-0.32887 0.552652,-0.434065 0.197256,-0.09863 0.431337,-0.145445 0.702561,-0.140518 z M -64.76943,97.21578 c -0.06904,0.0035 -0.139784,0.01801 -0.21211,0.04434 -0.71012,0.236707 -1.367626,0.697141 -1.972543,1.380954 -0.578616,0.683823 -1.10489,1.485636 -1.578302,2.406156 -0.447112,0.89423 -0.828179,1.85434 -1.143789,2.88006 -0.289306,1.02573 -0.486827,1.98583 -0.592031,2.88005 1.315037,-1.26243 2.48529,-2.63021 3.511018,-4.10305 1.052029,-1.49914 2.09105,-3.011218 3.116779,-4.536664 -0.131504,-0.210391 -0.315498,-0.434083 -0.552205,-0.670782 -0.177529,-0.197254 -0.369698,-0.290889 -0.576817,-0.281026 z m -2.07278,18.88324 c 2.730806,-0.0493 6.424468,0.93901 9.382553,1.14334 3.520234,0.24317 7.631258,0.051 10.396121,0.57368 1.912832,0.36162 3.943879,1.30075 4.73267,1.56086 -0.788791,0.2601 -2.819838,1.19878 -4.73267,1.5604 -2.764863,0.52268 -6.875887,0.33096 -10.396121,0.57413 -3.640721,0.25149 -8.395574,1.69015 -11.098236,0.92094 -1.835145,-0.52231 -3.438992,-2.54624 -4.126765,-3.05547 0.687773,-0.50924 2.29162,-2.53317 4.126765,-3.05547 0.50675,-0.14423 1.085498,-0.21104 1.715683,-0.22241 z m 31.070226,2.11932 c 0.07726,-0.003 0.158406,-0.002 0.243882,0.005 0.341911,0 0.657585,0.1186 0.946893,0.35531 0.157804,0.78902 0.210565,1.57776 0.157964,2.36679 -0.0526,0.78901 -0.171205,1.56512 -0.355308,2.32784 -0.184106,0.76273 -0.407336,1.51222 -0.670342,2.24864 -0.263008,0.71013 -0.526368,1.40731 -0.789375,2.09113 -0.762721,2.13037 -1.433306,4.26072 -2.011922,6.39108 -0.578615,2.13036 -1.18336,4.39194 -1.814577,6.78531 -0.131504,0.52601 -0.276263,1.07844 -0.434067,1.65706 -0.131503,0.57861 -0.263184,1.17028 -0.394688,1.7752 0,0.0526 -0.02615,0.23658 -0.07876,0.55221 -0.05261,0.3156 -0.1446,0.63128 -0.276102,0.94689 -0.105204,0.3419 -0.276119,0.61834 -0.512826,0.82875 -0.210406,0.23671 -0.513002,0.28902 -0.907512,0.15752 -0.236707,-0.0789 -0.407622,-0.35489 -0.512826,-0.82831 -0.105202,-0.44711 -0.157517,-0.95985 -0.157517,-1.53848 0,-0.55231 0.01308,-1.10475 0.03937,-1.65705 0.05261,-0.57863 0.09184,-1.02598 0.118138,-1.34158 0.07891,-1.10463 0.157821,-2.07737 0.236724,-2.91899 0.105201,-0.86793 0.236883,-1.73602 0.394687,-2.60395 -0.473414,0.55231 -0.960005,1.24906 -1.459717,2.09067 -0.473414,0.84164 -0.999688,1.70973 -1.578303,2.60396 -0.236707,0.3682 -0.486541,0.77588 -0.749547,1.22299 -0.263008,0.44712 -0.552078,0.88095 -0.867686,1.30176 -0.289309,0.39451 -0.604983,0.74987 -0.946893,1.06548 -0.315607,0.31559 -0.670518,0.52575 -1.065029,0.63095 -0.447112,0.13151 -0.999544,0.145 -1.657061,0.0398 -0.631217,-0.0789 -1.143965,-0.26336 -1.538476,-0.55266 -0.473412,-0.31561 -0.802166,-0.81527 -0.986271,-1.4991 -0.184105,-0.71012 -0.236867,-1.48577 -0.157964,-2.3274 0.0789,-0.97313 0.328736,-1.99907 0.749548,-3.0774 0.447113,-1.10463 0.999543,-2.14365 1.65706,-3.11677 0.65752,-0.97313 1.393944,-1.82771 2.209266,-2.56413 0.815322,-0.76272 1.656823,-1.30208 2.524747,-1.61768 0.999428,-0.36821 1.919847,-0.44713 2.76147,-0.23672 0.841622,0.1841 1.486051,0.57869 1.933162,1.18361 0.210406,-0.99943 0.486398,-2.09076 0.828307,-3.2743 0.368211,-1.20982 0.775882,-2.40669 1.222994,-3.59022 0.210406,-0.52602 0.447161,-1.078 0.710169,-1.65662 0.263008,-0.57861 0.526369,-1.11796 0.789375,-1.61767 0.289308,-0.52603 0.578378,-0.99953 0.867686,-1.42034 0.315609,-0.44712 0.631282,-0.78894 0.946892,-1.02565 0.157803,-0.0986 0.352648,-0.15303 0.584424,-0.16289 z m 9.593769,10.65701 c 0.578615,-0.0263 0.973209,0.27583 1.183615,0.90707 0.210405,0.63121 0.329007,1.39424 0.355308,2.28847 0.0263,0.89423 -0.01338,1.80156 -0.118585,2.72209 -0.105203,0.89422 -0.1972,1.5779 -0.276103,2.05129 -0.210404,1.31504 -0.513001,2.61699 -0.907512,3.90571 -0.368209,1.26244 -0.815118,2.48546 -1.341132,3.66898 -0.499713,1.18354 -1.078302,2.30147 -1.735819,3.35351 -0.631217,1.05201 -1.315327,1.98552 -2.051749,2.80084 -0.683817,0.78903 -1.4464,1.44653 -2.288023,1.97255 -0.815323,0.55232 -1.656823,0.95999 -2.524747,1.22299 -0.841623,0.26301 -1.683124,0.38161 -2.524747,0.35531 -0.841623,-0.0263 -1.63081,-0.22385 -2.367229,-0.59203 -0.210407,-0.10521 -0.434084,-0.23644 -0.67079,-0.39424 -0.263008,-0.1578 -0.486684,-0.34224 -0.67079,-0.55265 -0.210405,-0.18411 -0.367795,-0.38118 -0.472999,-0.59159 -0.105201,-0.2104 -0.118726,-0.421 -0.03983,-0.63141 0.105204,-0.2893 0.27612,-0.39438 0.512826,-0.31548 0.210406,0.1052 0.460689,0.26304 0.749995,0.47345 0.263008,0.2104 0.552078,0.42056 0.867686,0.63096 0.315609,0.2367 0.618205,0.35531 0.907513,0.35531 0.867924,-0.0263 1.670189,-0.30232 2.406609,-0.82831 0.73642,-0.49971 1.380401,-1.11799 1.932716,-1.85441 0.578615,-0.71012 1.065206,-1.44654 1.459717,-2.20926 0.39451,-0.76272 0.710186,-1.40715 0.946891,-1.93316 -0.973125,0.1315 -1.761865,-0.0786 -2.366781,-0.63096 -0.578616,-0.52601 -1.025972,-1.24937 -1.341579,-2.16989 -0.28931,-0.94683 -0.460225,-2.02508 -0.512826,-3.23492 -0.0263,-1.23613 0.02646,-2.44606 0.157964,-3.6296 0.157805,-1.20982 0.381036,-2.34085 0.670342,-3.39288 0.31561,-1.07833 0.657888,-1.94644 1.026099,-2.60395 0.210405,-0.39451 0.433635,-0.64435 0.670342,-0.74955 0.236707,-0.1315 0.447306,-0.1315 0.63141,0 0.184105,0.1052 0.328864,0.34196 0.434067,0.71017 0.131504,0.36821 0.183818,0.8548 0.157517,1.45972 -0.0263,0.81531 -0.118299,1.77542 -0.276103,2.88005 -0.131503,1.10463 -0.249657,2.20904 -0.35486,3.31367 -0.07891,1.10464 -0.105505,2.14365 -0.07921,3.11678 0.0263,0.94683 0.210744,1.6571 0.552652,2.13051 0.341909,0.1841 0.683741,0.14442 1.025651,-0.11858 0.341909,-0.26301 0.670662,-0.6576 0.986271,-1.18362 0.315609,-0.55231 0.618204,-1.18322 0.907512,-1.89334 0.289309,-0.73641 0.552222,-1.47284 0.788928,-2.20926 0.263006,-0.73642 0.486685,-1.44669 0.670789,-2.13051 0.210407,-0.68382 0.381322,-1.24932 0.512825,-1.69644 l 0.315482,-1.26237 c 0.157805,-0.52602 0.32872,-1.03877 0.512825,-1.53848 0.210406,-0.52601 0.434083,-0.97336 0.67079,-1.34158 0.263006,-0.39451 0.565156,-0.60466 0.907066,-0.63096 z m -17.738114,2.87469 c -0.06904,0.003 -0.139784,0.0184 -0.21211,0.0448 -0.71012,0.2367 -1.367626,0.69669 -1.972542,1.38051 -0.578616,0.68382 -1.104443,1.48609 -1.577855,2.40661 -0.447113,0.89422 -0.828628,1.85432 -1.144236,2.88006 -0.289308,1.02572 -0.486381,1.98538 -0.591584,2.87961 1.315037,-1.26243 2.485291,-2.62976 3.511018,-4.10261 1.052029,-1.49914 2.091051,-3.01167 3.116778,-4.53711 -0.131503,-0.21041 -0.315498,-0.43364 -0.552205,-0.67035 -0.177529,-0.19725 -0.370145,-0.29133 -0.577264,-0.28147 z" />
    </g>
    <path
       inkscape:original-d="M 0,0"
       inkscape:path-effect="#path-effect5"
       d="M 0,0"
       id="path5"
       style="fill:#a8cbfe" />
  </g>
</svg>
